<svg xmlns="http://www.w3.org/2000/svg" width="880" height="220" viewBox="0 0 880 220" shape-rendering="crispEdges" role="img" aria-label="Scopa score tracker"><rect width="880" height="220" fill="#1E4B39"/><rect x="8" y="8" width="4" height="4" fill="#245742"/><rect x="32" y="8" width="4" height="4" fill="#245742"/><rect x="56" y="8" width="4" height="4" fill="#245742"/><rect x="80" y="8" width="4" height="4" fill="#245742"/><rect x="104" y="8" width="4" height="4" fill="#245742"/><rect x="128" y="8" width="4" height="4" fill="#245742"/><rect x="152" y="8" width="4" height="4" fill="#245742"/><rect x="176" y="8" width="4" height="4" fill="#245742"/><rect x="200" y="8" width="4" height="4" fill="#245742"/><rect x="224" y="8" width="4" height="4" fill="#245742"/><rect x="248" y="8" width="4" height="4" fill="#245742"/><rect x="272" y="8" width="4" height="4" fill="#245742"/><rect x="296" y="8" width="4" height="4" fill="#245742"/><rect x="320" y="8" width="4" height="4" fill="#245742"/><rect x="344" y="8" width="4" height="4" fill="#245742"/><rect x="368" y="8" width="4" height="4" fill="#245742"/><rect x="392" y="8" width="4" height="4" fill="#245742"/><rect x="416" y="8" width="4" height="4" fill="#245742"/><rect x="440" y="8" width="4" height="4" fill="#245742"/><rect x="464" y="8" width="4" height="4" fill="#245742"/><rect x="488" y="8" width="4" height="4" fill="#245742"/><rect x="512" y="8" width="4" height="4" fill="#245742"/><rect x="536" y="8" width="4" height="4" fill="#245742"/><rect x="560" y="8" width="4" height="4" fill="#245742"/><rect x="584" y="8" width="4" height="4" fill="#245742"/><rect x="608" y="8" width="4" height="4" fill="#245742"/><rect x="632" y="8" width="4" height="4" fill="#245742"/><rect x="656" y="8" width="4" height="4" fill="#245742"/><rect x="680" y="8" width="4" height="4" fill="#245742"/><rect x="704" y="8" width="4" height="4" fill="#245742"/><rect x="728" y="8" width="4" height="4" fill="#245742"/><rect x="752" y="8" width="4" height="4" fill="#245742"/><rect x="776" y="8" width="4" height="4" fill="#245742"/><rect x="800" y="8" width="4" height="4" fill="#245742"/><rect x="824" y="8" width="4" height="4" fill="#245742"/><rect x="848" y="8" width="4" height="4" fill="#245742"/><rect x="872" y="8" width="4" height="4" fill="#245742"/><rect x="20" y="32" width="4" height="4" fill="#245742"/><rect x="44" y="32" width="4" height="4" fill="#245742"/><rect x="68" y="32" width="4" height="4" fill="#245742"/><rect x="92" y="32" width="4" height="4" fill="#245742"/><rect x="116" y="32" width="4" height="4" fill="#245742"/><rect x="140" y="32" width="4" height="4" fill="#245742"/><rect x="164" y="32" width="4" height="4" fill="#245742"/><rect x="188" y="32" width="4" height="4" fill="#245742"/><rect x="212" y="32" width="4" height="4" fill="#245742"/><rect x="236" y="32" width="4" height="4" fill="#245742"/><rect x="260" y="32" width="4" height="4" fill="#245742"/><rect x="284" y="32" width="4" height="4" fill="#245742"/><rect x="308" y="32" width="4" height="4" fill="#245742"/><rect x="332" y="32" width="4" height="4" fill="#245742"/><rect x="356" y="32" width="4" height="4" fill="#245742"/><rect x="380" y="32" width="4" height="4" fill="#245742"/><rect x="404" y="32" width="4" height="4" fill="#245742"/><rect x="428" y="32" width="4" height="4" fill="#245742"/><rect x="452" y="32" width="4" height="4" fill="#245742"/><rect x="476" y="32" width="4" height="4" fill="#245742"/><rect x="500" y="32" width="4" height="4" fill="#245742"/><rect x="524" y="32" width="4" height="4" fill="#245742"/><rect x="548" y="32" width="4" height="4" fill="#245742"/><rect x="572" y="32" width="4" height="4" fill="#245742"/><rect x="596" y="32" width="4" height="4" fill="#245742"/><rect x="620" y="32" width="4" height="4" fill="#245742"/><rect x="644" y="32" width="4" height="4" fill="#245742"/><rect x="668" y="32" width="4" height="4" fill="#245742"/><rect x="692" y="32" width="4" height="4" fill="#245742"/><rect x="716" y="32" width="4" height="4" fill="#245742"/><rect x="740" y="32" width="4" height="4" fill="#245742"/><rect x="764" y="32" width="4" height="4" fill="#245742"/><rect x="788" y="32" width="4" height="4" fill="#245742"/><rect x="812" y="32" width="4" height="4" fill="#245742"/><rect x="836" y="32" width="4" height="4" fill="#245742"/><rect x="860" y="32" width="4" height="4" fill="#245742"/><rect x="8" y="56" width="4" height="4" fill="#245742"/><rect x="32" y="56" width="4" height="4" fill="#245742"/><rect x="56" y="56" width="4" height="4" fill="#245742"/><rect x="80" y="56" width="4" height="4" fill="#245742"/><rect x="104" y="56" width="4" height="4" fill="#245742"/><rect x="128" y="56" width="4" height="4" fill="#245742"/><rect x="152" y="56" width="4" height="4" fill="#245742"/><rect x="176" y="56" width="4" height="4" fill="#245742"/><rect x="200" y="56" width="4" height="4" fill="#245742"/><rect x="224" y="56" width="4" height="4" fill="#245742"/><rect x="248" y="56" width="4" height="4" fill="#245742"/><rect x="272" y="56" width="4" height="4" fill="#245742"/><rect x="296" y="56" width="4" height="4" fill="#245742"/><rect x="320" y="56" width="4" height="4" fill="#245742"/><rect x="344" y="56" width="4" height="4" fill="#245742"/><rect x="368" y="56" width="4" height="4" fill="#245742"/><rect x="392" y="56" width="4" height="4" fill="#245742"/><rect x="416" y="56" width="4" height="4" fill="#245742"/><rect x="440" y="56" width="4" height="4" fill="#245742"/><rect x="464" y="56" width="4" height="4" fill="#245742"/><rect x="488" y="56" width="4" height="4" fill="#245742"/><rect x="512" y="56" width="4" height="4" fill="#245742"/><rect x="536" y="56" width="4" height="4" fill="#245742"/><rect x="560" y="56" width="4" height="4" fill="#245742"/><rect x="584" y="56" width="4" height="4" fill="#245742"/><rect x="608" y="56" width="4" height="4" fill="#245742"/><rect x="632" y="56" width="4" height="4" fill="#245742"/><rect x="656" y="56" width="4" height="4" fill="#245742"/><rect x="680" y="56" width="4" height="4" fill="#245742"/><rect x="704" y="56" width="4" height="4" fill="#245742"/><rect x="728" y="56" width="4" height="4" fill="#245742"/><rect x="752" y="56" width="4" height="4" fill="#245742"/><rect x="776" y="56" width="4" height="4" fill="#245742"/><rect x="800" y="56" width="4" height="4" fill="#245742"/><rect x="824" y="56" width="4" height="4" fill="#245742"/><rect x="848" y="56" width="4" height="4" fill="#245742"/><rect x="872" y="56" width="4" height="4" fill="#245742"/><rect x="20" y="80" width="4" height="4" fill="#245742"/><rect x="44" y="80" width="4" height="4" fill="#245742"/><rect x="68" y="80" width="4" height="4" fill="#245742"/><rect x="92" y="80" width="4" height="4" fill="#245742"/><rect x="116" y="80" width="4" height="4" fill="#245742"/><rect x="140" y="80" width="4" height="4" fill="#245742"/><rect x="164" y="80" width="4" height="4" fill="#245742"/><rect x="188" y="80" width="4" height="4" fill="#245742"/><rect x="212" y="80" width="4" height="4" fill="#245742"/><rect x="236" y="80" width="4" height="4" fill="#245742"/><rect x="260" y="80" width="4" height="4" fill="#245742"/><rect x="284" y="80" width="4" height="4" fill="#245742"/><rect x="308" y="80" width="4" height="4" fill="#245742"/><rect x="332" y="80" width="4" height="4" fill="#245742"/><rect x="356" y="80" width="4" height="4" fill="#245742"/><rect x="380" y="80" width="4" height="4" fill="#245742"/><rect x="404" y="80" width="4" height="4" fill="#245742"/><rect x="428" y="80" width="4" height="4" fill="#245742"/><rect x="452" y="80" width="4" height="4" fill="#245742"/><rect x="476" y="80" width="4" height="4" fill="#245742"/><rect x="500" y="80" width="4" height="4" fill="#245742"/><rect x="524" y="80" width="4" height="4" fill="#245742"/><rect x="548" y="80" width="4" height="4" fill="#245742"/><rect x="572" y="80" width="4" height="4" fill="#245742"/><rect x="596" y="80" width="4" height="4" fill="#245742"/><rect x="620" y="80" width="4" height="4" fill="#245742"/><rect x="644" y="80" width="4" height="4" fill="#245742"/><rect x="668" y="80" width="4" height="4" fill="#245742"/><rect x="692" y="80" width="4" height="4" fill="#245742"/><rect x="716" y="80" width="4" height="4" fill="#245742"/><rect x="740" y="80" width="4" height="4" fill="#245742"/><rect x="764" y="80" width="4" height="4" fill="#245742"/><rect x="788" y="80" width="4" height="4" fill="#245742"/><rect x="812" y="80" width="4" height="4" fill="#245742"/><rect x="836" y="80" width="4" height="4" fill="#245742"/><rect x="860" y="80" width="4" height="4" fill="#245742"/><rect x="8" y="104" width="4" height="4" fill="#245742"/><rect x="32" y="104" width="4" height="4" fill="#245742"/><rect x="56" y="104" width="4" height="4" fill="#245742"/><rect x="80" y="104" width="4" height="4" fill="#245742"/><rect x="104" y="104" width="4" height="4" fill="#245742"/><rect x="128" y="104" width="4" height="4" fill="#245742"/><rect x="152" y="104" width="4" height="4" fill="#245742"/><rect x="176" y="104" width="4" height="4" fill="#245742"/><rect x="200" y="104" width="4" height="4" fill="#245742"/><rect x="224" y="104" width="4" height="4" fill="#245742"/><rect x="248" y="104" width="4" height="4" fill="#245742"/><rect x="272" y="104" width="4" height="4" fill="#245742"/><rect x="296" y="104" width="4" height="4" fill="#245742"/><rect x="320" y="104" width="4" height="4" fill="#245742"/><rect x="344" y="104" width="4" height="4" fill="#245742"/><rect x="368" y="104" width="4" height="4" fill="#245742"/><rect x="392" y="104" width="4" height="4" fill="#245742"/><rect x="416" y="104" width="4" height="4" fill="#245742"/><rect x="440" y="104" width="4" height="4" fill="#245742"/><rect x="464" y="104" width="4" height="4" fill="#245742"/><rect x="488" y="104" width="4" height="4" fill="#245742"/><rect x="512" y="104" width="4" height="4" fill="#245742"/><rect x="536" y="104" width="4" height="4" fill="#245742"/><rect x="560" y="104" width="4" height="4" fill="#245742"/><rect x="584" y="104" width="4" height="4" fill="#245742"/><rect x="608" y="104" width="4" height="4" fill="#245742"/><rect x="632" y="104" width="4" height="4" fill="#245742"/><rect x="656" y="104" width="4" height="4" fill="#245742"/><rect x="680" y="104" width="4" height="4" fill="#245742"/><rect x="704" y="104" width="4" height="4" fill="#245742"/><rect x="728" y="104" width="4" height="4" fill="#245742"/><rect x="752" y="104" width="4" height="4" fill="#245742"/><rect x="776" y="104" width="4" height="4" fill="#245742"/><rect x="800" y="104" width="4" height="4" fill="#245742"/><rect x="824" y="104" width="4" height="4" fill="#245742"/><rect x="848" y="104" width="4" height="4" fill="#245742"/><rect x="872" y="104" width="4" height="4" fill="#245742"/><rect x="20" y="128" width="4" height="4" fill="#245742"/><rect x="44" y="128" width="4" height="4" fill="#245742"/><rect x="68" y="128" width="4" height="4" fill="#245742"/><rect x="92" y="128" width="4" height="4" fill="#245742"/><rect x="116" y="128" width="4" height="4" fill="#245742"/><rect x="140" y="128" width="4" height="4" fill="#245742"/><rect x="164" y="128" width="4" height="4" fill="#245742"/><rect x="188" y="128" width="4" height="4" fill="#245742"/><rect x="212" y="128" width="4" height="4" fill="#245742"/><rect x="236" y="128" width="4" height="4" fill="#245742"/><rect x="260" y="128" width="4" height="4" fill="#245742"/><rect x="284" y="128" width="4" height="4" fill="#245742"/><rect x="308" y="128" width="4" height="4" fill="#245742"/><rect x="332" y="128" width="4" height="4" fill="#245742"/><rect x="356" y="128" width="4" height="4" fill="#245742"/><rect x="380" y="128" width="4" height="4" fill="#245742"/><rect x="404" y="128" width="4" height="4" fill="#245742"/><rect x="428" y="128" width="4" height="4" fill="#245742"/><rect x="452" y="128" width="4" height="4" fill="#245742"/><rect x="476" y="128" width="4" height="4" fill="#245742"/><rect x="500" y="128" width="4" height="4" fill="#245742"/><rect x="524" y="128" width="4" height="4" fill="#245742"/><rect x="548" y="128" width="4" height="4" fill="#245742"/><rect x="572" y="128" width="4" height="4" fill="#245742"/><rect x="596" y="128" width="4" height="4" fill="#245742"/><rect x="620" y="128" width="4" height="4" fill="#245742"/><rect x="644" y="128" width="4" height="4" fill="#245742"/><rect x="668" y="128" width="4" height="4" fill="#245742"/><rect x="692" y="128" width="4" height="4" fill="#245742"/><rect x="716" y="128" width="4" height="4" fill="#245742"/><rect x="740" y="128" width="4" height="4" fill="#245742"/><rect x="764" y="128" width="4" height="4" fill="#245742"/><rect x="788" y="128" width="4" height="4" fill="#245742"/><rect x="812" y="128" width="4" height="4" fill="#245742"/><rect x="836" y="128" width="4" height="4" fill="#245742"/><rect x="860" y="128" width="4" height="4" fill="#245742"/><rect x="8" y="152" width="4" height="4" fill="#245742"/><rect x="32" y="152" width="4" height="4" fill="#245742"/><rect x="56" y="152" width="4" height="4" fill="#245742"/><rect x="80" y="152" width="4" height="4" fill="#245742"/><rect x="104" y="152" width="4" height="4" fill="#245742"/><rect x="128" y="152" width="4" height="4" fill="#245742"/><rect x="152" y="152" width="4" height="4" fill="#245742"/><rect x="176" y="152" width="4" height="4" fill="#245742"/><rect x="200" y="152" width="4" height="4" fill="#245742"/><rect x="224" y="152" width="4" height="4" fill="#245742"/><rect x="248" y="152" width="4" height="4" fill="#245742"/><rect x="272" y="152" width="4" height="4" fill="#245742"/><rect x="296" y="152" width="4" height="4" fill="#245742"/><rect x="320" y="152" width="4" height="4" fill="#245742"/><rect x="344" y="152" width="4" height="4" fill="#245742"/><rect x="368" y="152" width="4" height="4" fill="#245742"/><rect x="392" y="152" width="4" height="4" fill="#245742"/><rect x="416" y="152" width="4" height="4" fill="#245742"/><rect x="440" y="152" width="4" height="4" fill="#245742"/><rect x="464" y="152" width="4" height="4" fill="#245742"/><rect x="488" y="152" width="4" height="4" fill="#245742"/><rect x="512" y="152" width="4" height="4" fill="#245742"/><rect x="536" y="152" width="4" height="4" fill="#245742"/><rect x="560" y="152" width="4" height="4" fill="#245742"/><rect x="584" y="152" width="4" height="4" fill="#245742"/><rect x="608" y="152" width="4" height="4" fill="#245742"/><rect x="632" y="152" width="4" height="4" fill="#245742"/><rect x="656" y="152" width="4" height="4" fill="#245742"/><rect x="680" y="152" width="4" height="4" fill="#245742"/><rect x="704" y="152" width="4" height="4" fill="#245742"/><rect x="728" y="152" width="4" height="4" fill="#245742"/><rect x="752" y="152" width="4" height="4" fill="#245742"/><rect x="776" y="152" width="4" height="4" fill="#245742"/><rect x="800" y="152" width="4" height="4" fill="#245742"/><rect x="824" y="152" width="4" height="4" fill="#245742"/><rect x="848" y="152" width="4" height="4" fill="#245742"/><rect x="872" y="152" width="4" height="4" fill="#245742"/><rect x="20" y="176" width="4" height="4" fill="#245742"/><rect x="44" y="176" width="4" height="4" fill="#245742"/><rect x="68" y="176" width="4" height="4" fill="#245742"/><rect x="92" y="176" width="4" height="4" fill="#245742"/><rect x="116" y="176" width="4" height="4" fill="#245742"/><rect x="140" y="176" width="4" height="4" fill="#245742"/><rect x="164" y="176" width="4" height="4" fill="#245742"/><rect x="188" y="176" width="4" height="4" fill="#245742"/><rect x="212" y="176" width="4" height="4" fill="#245742"/><rect x="236" y="176" width="4" height="4" fill="#245742"/><rect x="260" y="176" width="4" height="4" fill="#245742"/><rect x="284" y="176" width="4" height="4" fill="#245742"/><rect x="308" y="176" width="4" height="4" fill="#245742"/><rect x="332" y="176" width="4" height="4" fill="#245742"/><rect x="356" y="176" width="4" height="4" fill="#245742"/><rect x="380" y="176" width="4" height="4" fill="#245742"/><rect x="404" y="176" width="4" height="4" fill="#245742"/><rect x="428" y="176" width="4" height="4" fill="#245742"/><rect x="452" y="176" width="4" height="4" fill="#245742"/><rect x="476" y="176" width="4" height="4" fill="#245742"/><rect x="500" y="176" width="4" height="4" fill="#245742"/><rect x="524" y="176" width="4" height="4" fill="#245742"/><rect x="548" y="176" width="4" height="4" fill="#245742"/><rect x="572" y="176" width="4" height="4" fill="#245742"/><rect x="596" y="176" width="4" height="4" fill="#245742"/><rect x="620" y="176" width="4" height="4" fill="#245742"/><rect x="644" y="176" width="4" height="4" fill="#245742"/><rect x="668" y="176" width="4" height="4" fill="#245742"/><rect x="692" y="176" width="4" height="4" fill="#245742"/><rect x="716" y="176" width="4" height="4" fill="#245742"/><rect x="740" y="176" width="4" height="4" fill="#245742"/><rect x="764" y="176" width="4" height="4" fill="#245742"/><rect x="788" y="176" width="4" height="4" fill="#245742"/><rect x="812" y="176" width="4" height="4" fill="#245742"/><rect x="836" y="176" width="4" height="4" fill="#245742"/><rect x="860" y="176" width="4" height="4" fill="#245742"/><rect x="8" y="200" width="4" height="4" fill="#245742"/><rect x="32" y="200" width="4" height="4" fill="#245742"/><rect x="56" y="200" width="4" height="4" fill="#245742"/><rect x="80" y="200" width="4" height="4" fill="#245742"/><rect x="104" y="200" width="4" height="4" fill="#245742"/><rect x="128" y="200" width="4" height="4" fill="#245742"/><rect x="152" y="200" width="4" height="4" fill="#245742"/><rect x="176" y="200" width="4" height="4" fill="#245742"/><rect x="200" y="200" width="4" height="4" fill="#245742"/><rect x="224" y="200" width="4" height="4" fill="#245742"/><rect x="248" y="200" width="4" height="4" fill="#245742"/><rect x="272" y="200" width="4" height="4" fill="#245742"/><rect x="296" y="200" width="4" height="4" fill="#245742"/><rect x="320" y="200" width="4" height="4" fill="#245742"/><rect x="344" y="200" width="4" height="4" fill="#245742"/><rect x="368" y="200" width="4" height="4" fill="#245742"/><rect x="392" y="200" width="4" height="4" fill="#245742"/><rect x="416" y="200" width="4" height="4" fill="#245742"/><rect x="440" y="200" width="4" height="4" fill="#245742"/><rect x="464" y="200" width="4" height="4" fill="#245742"/><rect x="488" y="200" width="4" height="4" fill="#245742"/><rect x="512" y="200" width="4" height="4" fill="#245742"/><rect x="536" y="200" width="4" height="4" fill="#245742"/><rect x="560" y="200" width="4" height="4" fill="#245742"/><rect x="584" y="200" width="4" height="4" fill="#245742"/><rect x="608" y="200" width="4" height="4" fill="#245742"/><rect x="632" y="200" width="4" height="4" fill="#245742"/><rect x="656" y="200" width="4" height="4" fill="#245742"/><rect x="680" y="200" width="4" height="4" fill="#245742"/><rect x="704" y="200" width="4" height="4" fill="#245742"/><rect x="728" y="200" width="4" height="4" fill="#245742"/><rect x="752" y="200" width="4" height="4" fill="#245742"/><rect x="776" y="200" width="4" height="4" fill="#245742"/><rect x="800" y="200" width="4" height="4" fill="#245742"/><rect x="824" y="200" width="4" height="4" fill="#245742"/><rect x="848" y="200" width="4" height="4" fill="#245742"/><rect x="872" y="200" width="4" height="4" fill="#245742"/><rect x="80" y="53" width="33" height="11" fill="#14342A"/><rect x="69" y="64" width="11" height="11" fill="#14342A"/><rect x="113" y="64" width="11" height="11" fill="#14342A"/><rect x="69" y="75" width="11" height="11" fill="#14342A"/><rect x="80" y="86" width="33" height="11" fill="#14342A"/><rect x="113" y="97" width="11" height="11" fill="#14342A"/><rect x="69" y="108" width="11" height="11" fill="#14342A"/><rect x="113" y="108" width="11" height="11" fill="#14342A"/><rect x="80" y="119" width="33" height="11" fill="#14342A"/><rect x="75" y="48" width="33" height="11" fill="#FAFAF6"/><rect x="64" y="59" width="11" height="11" fill="#FAFAF6"/><rect x="108" y="59" width="11" height="11" fill="#FAFAF6"/><rect x="64" y="70" width="11" height="11" fill="#FAFAF6"/><rect x="75" y="81" width="33" height="11" fill="#FAFAF6"/><rect x="108" y="92" width="11" height="11" fill="#FAFAF6"/><rect x="64" y="103" width="11" height="11" fill="#FAFAF6"/><rect x="108" y="103" width="11" height="11" fill="#FAFAF6"/><rect x="75" y="114" width="33" height="11" fill="#FAFAF6"/><rect x="157" y="53" width="33" height="11" fill="#14342A"/><rect x="146" y="64" width="11" height="11" fill="#14342A"/><rect x="190" y="64" width="11" height="11" fill="#14342A"/><rect x="146" y="75" width="11" height="11" fill="#14342A"/><rect x="146" y="86" width="11" height="11" fill="#14342A"/><rect x="146" y="97" width="11" height="11" fill="#14342A"/><rect x="146" y="108" width="11" height="11" fill="#14342A"/><rect x="190" y="108" width="11" height="11" fill="#14342A"/><rect x="157" y="119" width="33" height="11" fill="#14342A"/><rect x="152" y="48" width="33" height="11" fill="#FAFAF6"/><rect x="141" y="59" width="11" height="11" fill="#FAFAF6"/><rect x="185" y="59" width="11" height="11" fill="#FAFAF6"/><rect x="141" y="70" width="11" height="11" fill="#FAFAF6"/><rect x="141" y="81" width="11" height="11" fill="#FAFAF6"/><rect x="141" y="92" width="11" height="11" fill="#FAFAF6"/><rect x="141" y="103" width="11" height="11" fill="#FAFAF6"/><rect x="185" y="103" width="11" height="11" fill="#FAFAF6"/><rect x="152" y="114" width="33" height="11" fill="#FAFAF6"/><rect x="234" y="53" width="33" height="11" fill="#14342A"/><rect x="223" y="64" width="11" height="11" fill="#14342A"/><rect x="267" y="64" width="11" height="11" fill="#14342A"/><rect x="223" y="75" width="11" height="11" fill="#14342A"/><rect x="267" y="75" width="11" height="11" fill="#14342A"/><rect x="223" y="86" width="11" height="11" fill="#14342A"/><rect x="267" y="86" width="11" height="11" fill="#14342A"/><rect x="223" y="97" width="11" height="11" fill="#14342A"/><rect x="267" y="97" width="11" height="11" fill="#14342A"/><rect x="223" y="108" width="11" height="11" fill="#14342A"/><rect x="267" y="108" width="11" height="11" fill="#14342A"/><rect x="234" y="119" width="33" height="11" fill="#14342A"/><rect x="229" y="48" width="33" height="11" fill="#FAFAF6"/><rect x="218" y="59" width="11" height="11" fill="#FAFAF6"/><rect x="262" y="59" width="11" height="11" fill="#FAFAF6"/><rect x="218" y="70" width="11" height="11" fill="#FAFAF6"/><rect x="262" y="70" width="11" height="11" fill="#FAFAF6"/><rect x="218" y="81" width="11" height="11" fill="#FAFAF6"/><rect x="262" y="81" width="11" height="11" fill="#FAFAF6"/><rect x="218" y="92" width="11" height="11" fill="#FAFAF6"/><rect x="262" y="92" width="11" height="11" fill="#FAFAF6"/><rect x="218" y="103" width="11" height="11" fill="#FAFAF6"/><rect x="262" y="103" width="11" height="11" fill="#FAFAF6"/><rect x="229" y="114" width="33" height="11" fill="#FAFAF6"/><rect x="300" y="53" width="44" height="11" fill="#14342A"/><rect x="300" y="64" width="11" height="11" fill="#14342A"/><rect x="344" y="64" width="11" height="11" fill="#14342A"/><rect x="300" y="75" width="11" height="11" fill="#14342A"/><rect x="344" y="75" width="11" height="11" fill="#14342A"/><rect x="300" y="86" width="44" height="11" fill="#14342A"/><rect x="300" y="97" width="11" height="11" fill="#14342A"/><rect x="300" y="108" width="11" height="11" fill="#14342A"/><rect x="300" y="119" width="11" height="11" fill="#14342A"/><rect x="295" y="48" width="44" height="11" fill="#FAFAF6"/><rect x="295" y="59" width="11" height="11" fill="#FAFAF6"/><rect x="339" y="59" width="11" height="11" fill="#FAFAF6"/><rect x="295" y="70" width="11" height="11" fill="#FAFAF6"/><rect x="339" y="70" width="11" height="11" fill="#FAFAF6"/><rect x="295" y="81" width="44" height="11" fill="#FAFAF6"/><rect x="295" y="92" width="11" height="11" fill="#FAFAF6"/><rect x="295" y="103" width="11" height="11" fill="#FAFAF6"/><rect x="295" y="114" width="11" height="11" fill="#FAFAF6"/><rect x="388" y="53" width="33" height="11" fill="#14342A"/><rect x="377" y="64" width="11" height="11" fill="#14342A"/><rect x="421" y="64" width="11" height="11" fill="#14342A"/><rect x="377" y="75" width="11" height="11" fill="#14342A"/><rect x="421" y="75" width="11" height="11" fill="#14342A"/><rect x="377" y="86" width="55" height="11" fill="#14342A"/><rect x="377" y="97" width="11" height="11" fill="#14342A"/><rect x="421" y="97" width="11" height="11" fill="#14342A"/><rect x="377" y="108" width="11" height="11" fill="#14342A"/><rect x="421" y="108" width="11" height="11" fill="#14342A"/><rect x="377" y="119" width="11" height="11" fill="#14342A"/><rect x="421" y="119" width="11" height="11" fill="#14342A"/><rect x="383" y="48" width="33" height="11" fill="#FAFAF6"/><rect x="372" y="59" width="11" height="11" fill="#FAFAF6"/><rect x="416" y="59" width="11" height="11" fill="#FAFAF6"/><rect x="372" y="70" width="11" height="11" fill="#FAFAF6"/><rect x="416" y="70" width="11" height="11" fill="#FAFAF6"/><rect x="372" y="81" width="55" height="11" fill="#FAFAF6"/><rect x="372" y="92" width="11" height="11" fill="#FAFAF6"/><rect x="416" y="92" width="11" height="11" fill="#FAFAF6"/><rect x="372" y="103" width="11" height="11" fill="#FAFAF6"/><rect x="416" y="103" width="11" height="11" fill="#FAFAF6"/><rect x="372" y="114" width="11" height="11" fill="#FAFAF6"/><rect x="416" y="114" width="11" height="11" fill="#FAFAF6"/><rect x="566" y="73" width="20" height="5" fill="#14342A"/><rect x="556" y="78" width="40" height="5" fill="#14342A"/><rect x="556" y="83" width="10" height="5" fill="#14342A"/><rect x="586" y="83" width="10" height="5" fill="#14342A"/><rect x="551" y="88" width="10" height="5" fill="#14342A"/><rect x="571" y="88" width="10" height="5" fill="#14342A"/><rect x="591" y="88" width="10" height="5" fill="#14342A"/><rect x="551" y="93" width="10" height="5" fill="#14342A"/><rect x="566" y="93" width="20" height="5" fill="#14342A"/><rect x="591" y="93" width="10" height="5" fill="#14342A"/><rect x="551" y="98" width="10" height="5" fill="#14342A"/><rect x="566" y="98" width="20" height="5" fill="#14342A"/><rect x="591" y="98" width="10" height="5" fill="#14342A"/><rect x="551" y="103" width="10" height="5" fill="#14342A"/><rect x="571" y="103" width="10" height="5" fill="#14342A"/><rect x="591" y="103" width="10" height="5" fill="#14342A"/><rect x="556" y="108" width="10" height="5" fill="#14342A"/><rect x="586" y="108" width="10" height="5" fill="#14342A"/><rect x="556" y="113" width="40" height="5" fill="#14342A"/><rect x="566" y="118" width="20" height="5" fill="#14342A"/><rect x="563" y="70" width="20" height="5" fill="#E2B656"/><rect x="553" y="75" width="40" height="5" fill="#E2B656"/><rect x="553" y="80" width="10" height="5" fill="#E2B656"/><rect x="583" y="80" width="10" height="5" fill="#E2B656"/><rect x="548" y="85" width="10" height="5" fill="#E2B656"/><rect x="568" y="85" width="10" height="5" fill="#E2B656"/><rect x="588" y="85" width="10" height="5" fill="#E2B656"/><rect x="548" y="90" width="10" height="5" fill="#E2B656"/><rect x="563" y="90" width="20" height="5" fill="#E2B656"/><rect x="588" y="90" width="10" height="5" fill="#E2B656"/><rect x="548" y="95" width="10" height="5" fill="#E2B656"/><rect x="563" y="95" width="20" height="5" fill="#E2B656"/><rect x="588" y="95" width="10" height="5" fill="#E2B656"/><rect x="548" y="100" width="10" height="5" fill="#E2B656"/><rect x="568" y="100" width="10" height="5" fill="#E2B656"/><rect x="588" y="100" width="10" height="5" fill="#E2B656"/><rect x="553" y="105" width="10" height="5" fill="#E2B656"/><rect x="583" y="105" width="10" height="5" fill="#E2B656"/><rect x="553" y="110" width="40" height="5" fill="#E2B656"/><rect x="563" y="115" width="20" height="5" fill="#E2B656"/><rect x="617" y="73" width="50" height="5" fill="#14342A"/><rect x="617" y="78" width="50" height="5" fill="#14342A"/><rect x="622" y="83" width="40" height="5" fill="#14342A"/><rect x="622" y="88" width="40" height="5" fill="#14342A"/><rect x="627" y="93" width="30" height="5" fill="#14342A"/><rect x="637" y="98" width="10" height="5" fill="#14342A"/><rect x="637" y="103" width="10" height="5" fill="#14342A"/><rect x="637" y="108" width="10" height="5" fill="#14342A"/><rect x="627" y="113" width="30" height="5" fill="#14342A"/><rect x="622" y="118" width="40" height="5" fill="#14342A"/><rect x="614" y="70" width="50" height="5" fill="#EC6F63"/><rect x="614" y="75" width="50" height="5" fill="#EC6F63"/><rect x="619" y="80" width="40" height="5" fill="#EC6F63"/><rect x="619" y="85" width="40" height="5" fill="#EC6F63"/><rect x="624" y="90" width="30" height="5" fill="#EC6F63"/><rect x="634" y="95" width="10" height="5" fill="#EC6F63"/><rect x="634" y="100" width="10" height="5" fill="#EC6F63"/><rect x="634" y="105" width="10" height="5" fill="#EC6F63"/><rect x="624" y="110" width="30" height="5" fill="#EC6F63"/><rect x="619" y="115" width="40" height="5" fill="#EC6F63"/><rect x="703" y="73" width="10" height="5" fill="#14342A"/><rect x="703" y="78" width="10" height="5" fill="#14342A"/><rect x="703" y="83" width="10" height="5" fill="#14342A"/><rect x="703" y="88" width="10" height="5" fill="#14342A"/><rect x="703" y="93" width="10" height="5" fill="#14342A"/><rect x="703" y="98" width="10" height="5" fill="#14342A"/><rect x="688" y="103" width="40" height="5" fill="#14342A"/><rect x="703" y="108" width="10" height="5" fill="#14342A"/><rect x="703" y="113" width="10" height="5" fill="#14342A"/><rect x="698" y="118" width="20" height="5" fill="#14342A"/><rect x="700" y="70" width="10" height="5" fill="#86A8E6"/><rect x="700" y="75" width="10" height="5" fill="#86A8E6"/><rect x="700" y="80" width="10" height="5" fill="#86A8E6"/><rect x="700" y="85" width="10" height="5" fill="#86A8E6"/><rect x="700" y="90" width="10" height="5" fill="#86A8E6"/><rect x="700" y="95" width="10" height="5" fill="#86A8E6"/><rect x="685" y="100" width="40" height="5" fill="#86A8E6"/><rect x="700" y="105" width="10" height="5" fill="#86A8E6"/><rect x="700" y="110" width="10" height="5" fill="#86A8E6"/><rect x="695" y="115" width="20" height="5" fill="#86A8E6"/><rect x="779" y="73" width="20" height="5" fill="#14342A"/><rect x="774" y="78" width="25" height="5" fill="#14342A"/><rect x="769" y="83" width="15" height="5" fill="#14342A"/><rect x="789" y="83" width="10" height="5" fill="#14342A"/><rect x="769" y="88" width="25" height="5" fill="#14342A"/><rect x="764" y="93" width="20" height="5" fill="#14342A"/><rect x="759" y="98" width="15" height="5" fill="#14342A"/><rect x="754" y="103" width="15" height="5" fill="#14342A"/><rect x="749" y="108" width="15" height="5" fill="#14342A"/><rect x="749" y="113" width="10" height="5" fill="#14342A"/><rect x="749" y="118" width="5" height="5" fill="#14342A"/><rect x="776" y="70" width="20" height="5" fill="#A8D99A"/><rect x="771" y="75" width="25" height="5" fill="#A8D99A"/><rect x="766" y="80" width="15" height="5" fill="#A8D99A"/><rect x="786" y="80" width="10" height="5" fill="#A8D99A"/><rect x="766" y="85" width="25" height="5" fill="#A8D99A"/><rect x="761" y="90" width="20" height="5" fill="#A8D99A"/><rect x="756" y="95" width="15" height="5" fill="#A8D99A"/><rect x="751" y="100" width="15" height="5" fill="#A8D99A"/><rect x="746" y="105" width="15" height="5" fill="#A8D99A"/><rect x="746" y="110" width="10" height="5" fill="#A8D99A"/><rect x="746" y="115" width="5" height="5" fill="#A8D99A"/><rect x="64" y="160" width="16" height="6" fill="#E2B656"/><rect x="88" y="160" width="16" height="6" fill="#EC6F63"/><rect x="112" y="160" width="16" height="6" fill="#86A8E6"/><rect x="136" y="160" width="16" height="6" fill="#A8D99A"/><rect x="160" y="160" width="16" height="6" fill="#E2B656"/><rect x="184" y="160" width="16" height="6" fill="#EC6F63"/><rect x="208" y="160" width="16" height="6" fill="#86A8E6"/><rect x="232" y="160" width="16" height="6" fill="#A8D99A"/><rect x="256" y="160" width="16" height="6" fill="#E2B656"/><rect x="280" y="160" width="16" height="6" fill="#EC6F63"/><rect x="304" y="160" width="16" height="6" fill="#86A8E6"/><rect x="328" y="160" width="16" height="6" fill="#A8D99A"/><rect x="352" y="160" width="16" height="6" fill="#E2B656"/><rect x="376" y="160" width="16" height="6" fill="#EC6F63"/><rect x="400" y="160" width="16" height="6" fill="#86A8E6"/><rect x="424" y="160" width="16" height="6" fill="#A8D99A"/><rect x="448" y="160" width="16" height="6" fill="#E2B656"/><rect x="472" y="160" width="16" height="6" fill="#EC6F63"/><rect x="496" y="160" width="16" height="6" fill="#86A8E6"/><rect x="520" y="160" width="16" height="6" fill="#A8D99A"/><rect x="544" y="160" width="16" height="6" fill="#E2B656"/><rect x="568" y="160" width="16" height="6" fill="#EC6F63"/><rect x="592" y="160" width="16" height="6" fill="#86A8E6"/><rect x="616" y="160" width="16" height="6" fill="#A8D99A"/><rect x="640" y="160" width="16" height="6" fill="#E2B656"/><rect x="664" y="160" width="16" height="6" fill="#EC6F63"/><rect x="688" y="160" width="16" height="6" fill="#86A8E6"/><rect x="712" y="160" width="16" height="6" fill="#A8D99A"/><rect x="736" y="160" width="16" height="6" fill="#E2B656"/><rect x="760" y="160" width="16" height="6" fill="#EC6F63"/><rect x="784" y="160" width="16" height="6" fill="#86A8E6"/></svg>